# xmcd
#
# Track frame offsets: 
#        150
#        7770
#        21680
#        35337
#        44335
#        58965
#        77042
#        84967
#        94517
#        111050
#        121667
#        139960
#        151375
#        163305
#        173727
#
# Disc length: 2416 seconds
#
# Revision: 1
# Processed by: cddbd v1.5.2PL0 Copyright (c) Steve Scherf et al.
# Submitted via: ExactAudioCopyFreeDBPlugin 1.0
#
DISCID=b8096e0f
DTITLE=Leo Kottke - The Best Of Leo Kottke
DYEAR=1987
DGENRE=Countryfolk
TTITLE0=Stealing
TTITLE1=Last Steam Engine Train
TTITLE2=Machine #2*
TTITLE3=Cripple Creek
TTITLE4=Grim To The Brim
TTITLE5=Louise
TTITLE6=Wheels
TTITLE7=Poor Boy
TTITLE8=Morning Is A Long Way Home
TTITLE9=The Spanish Entomologist
TTITLE10=Pamela Brown
TTITLE11=Bean Time
TTITLE12=Busted Bicycle
TTITLE13=Lost John
TTITLE14=Living In The Country
EXTD=
EXTT0=
EXTT1=
EXTT2=
EXTT3=
EXTT4=
EXTT5=
EXTT6=
EXTT7=
EXTT8=
EXTT9=
EXTT10=
EXTT11=
EXTT12=
EXTT13=
EXTT14=
PLAYORDER=
